<mxfile host="app.diagrams.net" modified="2023-06-02T19:50:24.635Z" agent="Mozilla/5.0 (Windows NT 10.0; Win64; x64) AppleWebKit/537.36 (KHTML, like Gecko) Chrome/114.0.0.0 Safari/537.36" etag="3GuN3zoeM2tipLTFdhEu" version="21.3.7" type="github">
  <diagram name="Page-1" id="mOVAMNny2sQUEulAPvkH">
    <mxGraphModel dx="2074" dy="1116" grid="1" gridSize="10" guides="1" tooltips="1" connect="1" arrows="1" fold="1" page="1" pageScale="1" pageWidth="850" pageHeight="1100" math="0" shadow="0">
      <root>
        <mxCell id="0" />
        <mxCell id="1" parent="0" />
        <mxCell id="tyCYR44G-4cqXfApV6pX-1" value="Mona Lisa" style="ellipse;whiteSpace=wrap;html=1;" vertex="1" parent="1">
          <mxGeometry x="420" y="470" width="90" height="80" as="geometry" />
        </mxCell>
        <mxCell id="tyCYR44G-4cqXfApV6pX-2" value="Leonardo Da Vinci" style="ellipse;whiteSpace=wrap;html=1;" vertex="1" parent="1">
          <mxGeometry x="530" y="600" width="80" height="80" as="geometry" />
        </mxCell>
        <mxCell id="tyCYR44G-4cqXfApV6pX-3" value="Louvre" style="ellipse;whiteSpace=wrap;html=1;" vertex="1" parent="1">
          <mxGeometry x="320" y="590" width="80" height="80" as="geometry" />
        </mxCell>
        <mxCell id="tyCYR44G-4cqXfApV6pX-4" value="Historical Events" style="ellipse;whiteSpace=wrap;html=1;" vertex="1" parent="1">
          <mxGeometry x="500" y="220" width="120" height="80" as="geometry" />
        </mxCell>
        <mxCell id="tyCYR44G-4cqXfApV6pX-6" value="Paintings" style="ellipse;whiteSpace=wrap;html=1;" vertex="1" parent="1">
          <mxGeometry x="340" y="285" width="120" height="80" as="geometry" />
        </mxCell>
        <mxCell id="tyCYR44G-4cqXfApV6pX-7" value="Images" style="ellipse;whiteSpace=wrap;html=1;" vertex="1" parent="1">
          <mxGeometry x="180" y="200" width="120" height="80" as="geometry" />
        </mxCell>
        <mxCell id="tyCYR44G-4cqXfApV6pX-8" value="Artwork" style="ellipse;whiteSpace=wrap;html=1;" vertex="1" parent="1">
          <mxGeometry x="20" y="170" width="120" height="80" as="geometry" />
        </mxCell>
        <mxCell id="tyCYR44G-4cqXfApV6pX-9" value="Thefts" style="ellipse;whiteSpace=wrap;html=1;" vertex="1" parent="1">
          <mxGeometry x="530" y="370" width="120" height="80" as="geometry" />
        </mxCell>
        <mxCell id="tyCYR44G-4cqXfApV6pX-10" value="Museums" style="ellipse;whiteSpace=wrap;html=1;" vertex="1" parent="1">
          <mxGeometry x="220" y="690" width="80" height="80" as="geometry" />
        </mxCell>
        <mxCell id="tyCYR44G-4cqXfApV6pX-11" value="Person" style="ellipse;whiteSpace=wrap;html=1;" vertex="1" parent="1">
          <mxGeometry x="640" y="720" width="90" height="80" as="geometry" />
        </mxCell>
        <mxCell id="tyCYR44G-4cqXfApV6pX-12" value="" style="endArrow=classic;html=1;rounded=0;exitX=0.5;exitY=0;exitDx=0;exitDy=0;entryX=1;entryY=1;entryDx=0;entryDy=0;" edge="1" parent="1" source="tyCYR44G-4cqXfApV6pX-2" target="tyCYR44G-4cqXfApV6pX-1">
          <mxGeometry width="50" height="50" relative="1" as="geometry">
            <mxPoint x="450" y="500" as="sourcePoint" />
            <mxPoint x="500" y="450" as="targetPoint" />
          </mxGeometry>
        </mxCell>
        <mxCell id="tyCYR44G-4cqXfApV6pX-13" value="Created" style="text;strokeColor=none;fillColor=none;spacingLeft=4;spacingRight=4;overflow=hidden;rotatable=0;points=[[0,0.5],[1,0.5]];portConstraint=eastwest;fontSize=12;whiteSpace=wrap;html=1;" vertex="1" parent="1">
          <mxGeometry x="540" y="540" width="70" height="30" as="geometry" />
        </mxCell>
        <mxCell id="tyCYR44G-4cqXfApV6pX-14" value="" style="endArrow=classic;html=1;rounded=0;exitX=1;exitY=0;exitDx=0;exitDy=0;entryX=0.207;entryY=1;entryDx=0;entryDy=0;entryPerimeter=0;" edge="1" parent="1" source="tyCYR44G-4cqXfApV6pX-3" target="tyCYR44G-4cqXfApV6pX-1">
          <mxGeometry width="50" height="50" relative="1" as="geometry">
            <mxPoint x="760" y="590" as="sourcePoint" />
            <mxPoint x="810" y="540" as="targetPoint" />
          </mxGeometry>
        </mxCell>
        <mxCell id="tyCYR44G-4cqXfApV6pX-15" value="Houses" style="text;strokeColor=none;fillColor=none;spacingLeft=4;spacingRight=4;overflow=hidden;rotatable=0;points=[[0,0.5],[1,0.5]];portConstraint=eastwest;fontSize=12;whiteSpace=wrap;html=1;" vertex="1" parent="1">
          <mxGeometry x="360" y="550" width="70" height="30" as="geometry" />
        </mxCell>
        <mxCell id="tyCYR44G-4cqXfApV6pX-16" value="" style="endArrow=classic;html=1;rounded=0;entryX=1;entryY=0;entryDx=0;entryDy=0;exitX=0;exitY=1;exitDx=0;exitDy=0;" edge="1" parent="1" source="tyCYR44G-4cqXfApV6pX-3" target="tyCYR44G-4cqXfApV6pX-10">
          <mxGeometry width="50" height="50" relative="1" as="geometry">
            <mxPoint x="760" y="590" as="sourcePoint" />
            <mxPoint x="810" y="540" as="targetPoint" />
          </mxGeometry>
        </mxCell>
        <mxCell id="tyCYR44G-4cqXfApV6pX-17" value="" style="endArrow=classic;html=1;rounded=0;exitX=1;exitY=1;exitDx=0;exitDy=0;" edge="1" parent="1" source="tyCYR44G-4cqXfApV6pX-2" target="tyCYR44G-4cqXfApV6pX-11">
          <mxGeometry width="50" height="50" relative="1" as="geometry">
            <mxPoint x="760" y="590" as="sourcePoint" />
            <mxPoint x="810" y="540" as="targetPoint" />
          </mxGeometry>
        </mxCell>
        <mxCell id="tyCYR44G-4cqXfApV6pX-18" value="Is" style="text;strokeColor=none;fillColor=none;spacingLeft=4;spacingRight=4;overflow=hidden;rotatable=0;points=[[0,0.5],[1,0.5]];portConstraint=eastwest;fontSize=12;whiteSpace=wrap;html=1;" vertex="1" parent="1">
          <mxGeometry x="290" y="650" width="30" height="30" as="geometry" />
        </mxCell>
        <mxCell id="tyCYR44G-4cqXfApV6pX-19" value="Is" style="text;strokeColor=none;fillColor=none;spacingLeft=4;spacingRight=4;overflow=hidden;rotatable=0;points=[[0,0.5],[1,0.5]];portConstraint=eastwest;fontSize=12;whiteSpace=wrap;html=1;" vertex="1" parent="1">
          <mxGeometry x="640" y="670" width="30" height="30" as="geometry" />
        </mxCell>
        <mxCell id="tyCYR44G-4cqXfApV6pX-20" value="" style="endArrow=classic;html=1;rounded=0;exitX=0.274;exitY=0.083;exitDx=0;exitDy=0;exitPerimeter=0;" edge="1" parent="1" source="tyCYR44G-4cqXfApV6pX-1" target="tyCYR44G-4cqXfApV6pX-6">
          <mxGeometry width="50" height="50" relative="1" as="geometry">
            <mxPoint x="760" y="590" as="sourcePoint" />
            <mxPoint x="810" y="540" as="targetPoint" />
          </mxGeometry>
        </mxCell>
        <mxCell id="tyCYR44G-4cqXfApV6pX-21" value="" style="endArrow=classic;html=1;rounded=0;exitX=1;exitY=0;exitDx=0;exitDy=0;" edge="1" parent="1" source="tyCYR44G-4cqXfApV6pX-1" target="tyCYR44G-4cqXfApV6pX-9">
          <mxGeometry width="50" height="50" relative="1" as="geometry">
            <mxPoint x="760" y="590" as="sourcePoint" />
            <mxPoint x="810" y="540" as="targetPoint" />
          </mxGeometry>
        </mxCell>
        <mxCell id="tyCYR44G-4cqXfApV6pX-22" value="" style="endArrow=classic;html=1;rounded=0;exitX=0.639;exitY=-0.008;exitDx=0;exitDy=0;exitPerimeter=0;entryX=0.5;entryY=1;entryDx=0;entryDy=0;" edge="1" parent="1" source="tyCYR44G-4cqXfApV6pX-9" target="tyCYR44G-4cqXfApV6pX-4">
          <mxGeometry width="50" height="50" relative="1" as="geometry">
            <mxPoint x="760" y="590" as="sourcePoint" />
            <mxPoint x="810" y="540" as="targetPoint" />
          </mxGeometry>
        </mxCell>
        <mxCell id="tyCYR44G-4cqXfApV6pX-23" value="Vincenzo Peruggia" style="ellipse;whiteSpace=wrap;html=1;aspect=fixed;" vertex="1" parent="1">
          <mxGeometry x="690" y="470" width="80" height="80" as="geometry" />
        </mxCell>
        <mxCell id="tyCYR44G-4cqXfApV6pX-24" value="" style="endArrow=classic;html=1;rounded=0;exitX=1;exitY=1;exitDx=0;exitDy=0;entryX=0;entryY=0;entryDx=0;entryDy=0;" edge="1" parent="1" source="tyCYR44G-4cqXfApV6pX-9" target="tyCYR44G-4cqXfApV6pX-23">
          <mxGeometry width="50" height="50" relative="1" as="geometry">
            <mxPoint x="760" y="590" as="sourcePoint" />
            <mxPoint x="810" y="540" as="targetPoint" />
          </mxGeometry>
        </mxCell>
        <mxCell id="tyCYR44G-4cqXfApV6pX-25" value="Is" style="text;strokeColor=none;fillColor=none;spacingLeft=4;spacingRight=4;overflow=hidden;rotatable=0;points=[[0,0.5],[1,0.5]];portConstraint=eastwest;fontSize=12;whiteSpace=wrap;html=1;" vertex="1" parent="1">
          <mxGeometry x="590" y="310" width="30" height="30" as="geometry" />
        </mxCell>
        <mxCell id="tyCYR44G-4cqXfApV6pX-26" value="" style="endArrow=classic;html=1;rounded=0;exitX=0.317;exitY=0.95;exitDx=0;exitDy=0;exitPerimeter=0;" edge="1" parent="1" source="tyCYR44G-4cqXfApV6pX-23" target="tyCYR44G-4cqXfApV6pX-11">
          <mxGeometry width="50" height="50" relative="1" as="geometry">
            <mxPoint x="760" y="590" as="sourcePoint" />
            <mxPoint x="810" y="540" as="targetPoint" />
          </mxGeometry>
        </mxCell>
        <mxCell id="tyCYR44G-4cqXfApV6pX-27" value="Is" style="text;strokeColor=none;fillColor=none;spacingLeft=4;spacingRight=4;overflow=hidden;rotatable=0;points=[[0,0.5],[1,0.5]];portConstraint=eastwest;fontSize=12;whiteSpace=wrap;html=1;" vertex="1" parent="1">
          <mxGeometry x="710" y="615" width="30" height="30" as="geometry" />
        </mxCell>
        <mxCell id="tyCYR44G-4cqXfApV6pX-28" value="" style="endArrow=classic;html=1;rounded=0;exitX=0;exitY=0;exitDx=0;exitDy=0;entryX=0.933;entryY=0.825;entryDx=0;entryDy=0;entryPerimeter=0;" edge="1" parent="1" source="tyCYR44G-4cqXfApV6pX-6" target="tyCYR44G-4cqXfApV6pX-7">
          <mxGeometry width="50" height="50" relative="1" as="geometry">
            <mxPoint x="760" y="590" as="sourcePoint" />
            <mxPoint x="360" y="290" as="targetPoint" />
          </mxGeometry>
        </mxCell>
        <mxCell id="tyCYR44G-4cqXfApV6pX-29" value="" style="endArrow=classic;html=1;rounded=0;entryX=1;entryY=1;entryDx=0;entryDy=0;" edge="1" parent="1" source="tyCYR44G-4cqXfApV6pX-7" target="tyCYR44G-4cqXfApV6pX-8">
          <mxGeometry width="50" height="50" relative="1" as="geometry">
            <mxPoint x="760" y="590" as="sourcePoint" />
            <mxPoint x="810" y="540" as="targetPoint" />
          </mxGeometry>
        </mxCell>
        <mxCell id="tyCYR44G-4cqXfApV6pX-30" value="Is" style="text;strokeColor=none;fillColor=none;spacingLeft=4;spacingRight=4;overflow=hidden;rotatable=0;points=[[0,0.5],[1,0.5]];portConstraint=eastwest;fontSize=12;whiteSpace=wrap;html=1;" vertex="1" parent="1">
          <mxGeometry x="385" y="400" width="30" height="30" as="geometry" />
        </mxCell>
        <mxCell id="tyCYR44G-4cqXfApV6pX-31" value="Is" style="text;strokeColor=none;fillColor=none;spacingLeft=4;spacingRight=4;overflow=hidden;rotatable=0;points=[[0,0.5],[1,0.5]];portConstraint=eastwest;fontSize=12;whiteSpace=wrap;html=1;" vertex="1" parent="1">
          <mxGeometry x="300" y="285" width="30" height="30" as="geometry" />
        </mxCell>
        <mxCell id="tyCYR44G-4cqXfApV6pX-32" value="Is" style="text;strokeColor=none;fillColor=none;spacingLeft=4;spacingRight=4;overflow=hidden;rotatable=0;points=[[0,0.5],[1,0.5]];portConstraint=eastwest;fontSize=12;whiteSpace=wrap;html=1;" vertex="1" parent="1">
          <mxGeometry x="150" y="220" width="30" height="30" as="geometry" />
        </mxCell>
        <mxCell id="tyCYR44G-4cqXfApV6pX-33" value="agent" style="text;strokeColor=none;fillColor=none;spacingLeft=4;spacingRight=4;overflow=hidden;rotatable=0;points=[[0,0.5],[1,0.5]];portConstraint=eastwest;fontSize=12;whiteSpace=wrap;html=1;" vertex="1" parent="1">
          <mxGeometry x="660" y="430" width="40" height="30" as="geometry" />
        </mxCell>
        <mxCell id="tyCYR44G-4cqXfApV6pX-34" value="" style="endArrow=classic;html=1;rounded=0;" edge="1" parent="1" source="tyCYR44G-4cqXfApV6pX-3" target="tyCYR44G-4cqXfApV6pX-8">
          <mxGeometry width="50" height="50" relative="1" as="geometry">
            <mxPoint x="760" y="590" as="sourcePoint" />
            <mxPoint x="810" y="540" as="targetPoint" />
          </mxGeometry>
        </mxCell>
        <mxCell id="tyCYR44G-4cqXfApV6pX-35" value="has" style="text;strokeColor=none;fillColor=none;spacingLeft=4;spacingRight=4;overflow=hidden;rotatable=0;points=[[0,0.5],[1,0.5]];portConstraint=eastwest;fontSize=12;whiteSpace=wrap;html=1;" vertex="1" parent="1">
          <mxGeometry x="200" y="460" width="30" height="30" as="geometry" />
        </mxCell>
      </root>
    </mxGraphModel>
  </diagram>
</mxfile>
